<?xml version="1.0" standalone="no"?>
<!DOCTYPE svg PUBLIC "-//W3C//DTD SVG 20010904//EN"
 "http://www.w3.org/TR/2001/REC-SVG-20010904/DTD/svg10.dtd">
<svg version="1.0" xmlns="http://www.w3.org/2000/svg"
 width="250.000000pt" height="250.000000pt" viewBox="0 0 250.000000 250.000000"
 preserveAspectRatio="xMidYMid meet">

<g transform="translate(0.000000,250.000000) scale(0.100000,-0.100000)"
fill="#000000" stroke="none">
<path d="M1194 2481 c-63 -38 -70 -128 -13 -175 l30 -25 -113 -291 -112 -290
-383 0 c-367 0 -383 1 -383 19 0 30 -38 70 -79 82 -110 33 -188 -112 -100
-185 20 -17 43 -26 65 -26 37 0 90 22 96 40 4 12 584 -434 581 -447 -1 -5 -81
-215 -179 -466 l-177 -457 -41 0 c-116 -1 -147 -161 -40 -206 89 -37 184 60
141 145 l-15 30 380 296 c209 163 386 299 392 301 9 3 719 -530 779 -585 4 -4
0 -22 -9 -40 -21 -42 -12 -90 24 -123 34 -32 63 -39 108 -27 62 18 92 96 60
157 -16 31 -47 50 -90 54 -29 3 -32 9 -213 463 -100 253 -183 465 -182 470 0
8 504 407 556 440 11 7 17 6 20 -3 7 -20 59 -42 97 -42 45 0 93 40 102 85 9
47 -19 99 -64 121 -32 15 -41 15 -77 3 -31 -11 -44 -23 -60 -56 l-20 -42 -380
0 -380 -1 -113 288 -114 288 36 36 c26 26 36 45 36 67 0 44 -25 88 -60 106
-39 20 -68 19 -106 -4z m96 -51 c24 -24 26 -57 3 -82 -33 -37 -103 -11 -103
39 0 28 33 63 60 63 11 0 29 -9 40 -20z m65 -460 c54 -135 99 -251 102 -257 4
-10 -41 -13 -207 -13 -116 0 -210 4 -208 8 2 5 48 124 102 265 55 142 103 254
107 250 4 -5 51 -118 104 -253z m-1205 -230 c39 -39 14 -100 -41 -100 -29 0
-59 31 -59 61 0 19 45 59 66 59 8 0 23 -9 34 -20z m2274 -1 c30 -23 33 -45 10
-77 -18 -26 -60 -29 -86 -5 -25 23 -23 68 4 87 29 21 40 20 72 -5z m-1464 -96
c0 -5 -34 -97 -76 -205 -53 -135 -80 -195 -88 -189 -6 4 -121 93 -256 196
-135 104 -249 192 -254 197 -6 4 144 8 332 8 188 0 342 -3 342 -7z m606 -203
c46 -113 83 -210 83 -217 1 -6 -89 -82 -199 -168 l-200 -156 -192 148 c-105
81 -196 151 -201 154 -5 4 25 95 68 205 42 110 81 209 86 222 l9 22 232 -2
232 -3 82 -205z m634 205 c0 -6 -501 -397 -504 -393 -5 5 -156 388 -156 393 0
3 149 5 330 5 182 0 330 -2 330 -5z m-992 -780 c-2 -1 -157 -122 -346 -269
-189 -148 -345 -266 -348 -264 -2 3 64 180 147 394 83 214 155 399 160 411 8
22 19 15 199 -124 104 -80 189 -147 188 -148z m622 -92 c84 -214 160 -403 167
-421 11 -27 11 -32 1 -26 -12 7 -547 416 -660 505 l-47 37 187 146 c103 80
190 146 193 146 3 0 75 -174 159 -387z m-1396 -585 c23 -32 20 -54 -11 -77
-41 -33 -93 -7 -93 45 0 52 74 75 104 32z m1720 6 c47 -47 -14 -126 -70 -90
-31 21 -39 52 -20 81 19 29 66 34 90 9z"/>
</g>
</svg>
